<svg viewBox="0 0 302 243" fill="none" xmlns="http://www.w3.org/2000/svg">
	<path fill-rule="evenodd" clip-rule="evenodd" d="M3.64393 140.696L4.19172 138.972L4.77299 137.259L5.38676 135.558L6.03196 133.87L6.70759 132.194L7.41258 130.532L8.14595 128.884L8.90663 127.251L9.69364 125.632L10.506 124.028L11.3427 122.44L12.2029 120.868L13.0858 119.312L13.9909 117.773L14.9177 116.25L15.8658 114.745L16.8349 113.257L17.8247 111.787L18.8351 110.335L19.8661 108.902L20.9176 107.488L21.9896 106.092L23.0822 104.717L24.1954 103.362L25.3294 102.027L26.4842 100.714L27.66 99.4221L28.8566 98.1523L30.0743 96.9052L31.313 95.6811L32.5726 94.4806L33.8531 93.3042L35.1542 92.1524L36.4759 91.0256L37.8176 89.9243L39.1792 88.8489L40.56 87.7997L41.9595 86.7772L43.3771 85.7816L44.8118 84.8131L46.2629 83.872L47.7293 82.9581L49.2098 82.0716L50.7033 81.2123L52.2086 80.3803L53.7244 79.5752L55.2496 78.7969L56.7829 78.0452L58.3231 77.3197L59.8689 76.62L61.4191 75.9458L62.9725 75.2967L64.5279 74.672L66.0841 74.0714L67.6398 73.4942L69.1939 72.9397L70.7453 72.4075L72.2928 71.8966L73.8353 71.4064L75.3717 70.9361L76.9009 70.485L78.422 70.052L79.934 69.6365L81.436 69.2374L82.9269 68.8539L84.4061 68.485L85.8725 68.1298L87.3256 67.7872L88.7645 67.4562L90.1887 67.1359L91.5974 66.8252L92.9902 66.5231L94.3664 66.2286L95.7257 65.9405L97.0676 65.658L98.3918 65.38L99.698 65.1054L100.986 64.8333L102.255 64.5626L103.506 64.2924L104.739 64.0218L105.952 63.7497L107.147 63.4753L108.324 63.1976L109.481 62.9159L110.621 62.6292L111.743 62.3369L112.847 62.038L113.934 61.7319L115.003 61.418L116.056 61.0954L117.093 60.7637L118.114 60.4223L119.12 60.0706L120.112 59.7082L121.089 59.3346L122.054 58.9494L123.005 58.5523L123.945 58.143L124.873 57.7213L125.791 57.2868L126.698 56.8396L127.597 56.3795L128.487 55.9064L129.37 55.4204L130.246 54.9214L131.117 54.4096L131.982 53.8851L132.842 53.3482L133.699 52.7989L134.554 52.2376L135.406 51.6647L136.258 51.0805L137.109 50.4853L137.96 49.8795L138.812 49.2632L139.666 48.6369L140.522 48.0004L141.381 47.3541L142.243 46.6978L143.109 46.0318L143.979 45.356L144.854 44.6704L145.734 43.9749L146.62 43.2697L147.512 42.5545L148.411 41.8295L149.317 41.0946L150.231 40.3499L151.152 39.5952L152.083 38.8308L153.022 38.0566L153.971 37.2729L154.93 36.4796L155.9 35.6771L156.881 34.8656L157.874 34.0452L158.878 33.2165L159.896 32.3797L160.926 31.5353L161.97 30.6838L163.028 29.8257L164.101 28.9616L165.188 28.0922L166.291 27.2181L167.41 26.3403L168.545 25.4593L169.696 24.5762L170.865 23.6917L172.051 22.8069L173.254 21.9226L174.475 21.0399L175.713 20.1598L176.97 19.2834L178.245 18.4117L179.539 17.546L180.85 16.6873L182.181 15.8368L183.529 14.9957L184.896 14.1652L186.281 13.3466L187.684 12.541L189.105 11.7497L190.543 10.9739L191.999 10.215L193.471 9.47407L194.961 8.75243L196.466 8.05128L197.987 7.37182L199.523 6.71531L201.073 6.08292L202.638 5.47579L204.216 4.89506L205.806 4.3419L207.409 3.81734L209.022 3.3225L210.646 2.85833L212.28 2.42586L213.922 2.02605L215.572 1.65978L217.229 1.32792L218.892 1.03129L220.56 0.770684L222.231 0.546792L223.906 0.360314L225.583 0.211846L227.261 0.101983L228.938 0.0312284L230.614 2.42769e-05L232.289 0.00878297L233.959 0.0578706L235.626 0.147562L237.287 0.278101L238.941 0.44964L240.588 0.662333L242.226 0.916194L243.854 1.21125L245.471 1.54745L247.077 1.92468L248.67 2.34277L250.249 2.80151L251.813 3.30058L253.362 3.83972L254.894 4.41847L256.408 5.03643L257.904 5.69314L259.381 6.38806L260.838 7.12059L262.274 7.89013L263.689 8.696L265.081 9.53752L266.451 10.4139L267.797 11.3244L269.119 12.2682L270.416 13.2444L271.689 14.2522L272.936 15.2906L274.157 16.3588L275.352 17.4559L276.52 18.5808L277.662 19.7328L278.776 20.9107L279.862 22.1138L280.921 23.3411L281.952 24.5914L282.955 25.864L283.93 27.1578L284.877 28.4717L285.795 29.8049L286.685 31.1564L287.547 32.5251L288.382 33.9101L289.188 35.3103L289.966 36.7249L290.717 38.1528L291.441 39.5931L292.137 41.0448L292.807 42.5072L293.45 43.9791L294.067 45.4598L294.658 46.9485L295.224 48.4442L295.764 49.9462L296.28 51.4538L296.771 52.9661L297.238 54.4825L297.681 56.0024L298.101 57.525L298.497 59.0499L298.871 60.5765L299.222 62.1041L299.551 63.6323L299.858 65.1607L300.144 66.6886L300.408 68.2157L300.651 69.7416L300.873 71.2658L301.075 72.788L301.256 74.3078L301.417 75.8249L301.558 77.3389L301.679 78.8495L301.781 80.3565L301.863 81.8596L301.926 83.3584L301.97 84.8528L301.994 86.3426L302 87.8274L301.987 89.3071L301.954 90.7814L301.903 92.2502L301.833 93.7132L301.745 95.1703L301.637 96.6212L301.511 98.0658L301.365 99.5038L301.201 100.935L301.018 102.359L300.817 103.776L300.596 105.186L300.356 106.588L300.098 107.983L299.82 109.369L299.524 110.747L299.209 112.117L298.874 113.478L298.521 114.83L298.149 116.172L297.758 117.506L297.349 118.829L296.921 120.143L296.475 121.446L296.01 122.739L295.527 124.021L295.026 125.292L294.508 126.552L293.972 127.8L293.419 129.036L292.849 130.26L292.262 131.472L291.66 132.672L291.042 133.858L290.408 135.032L289.76 136.192L289.098 137.338L288.422 138.471L287.733 139.591L287.031 140.696L286.318 141.787L285.593 142.864L284.857 143.926L284.112 144.975L283.358 146.008L282.595 147.027L281.825 148.032L281.048 149.022L280.265 149.998L279.477 150.96L278.684 151.907L277.888 152.84L277.09 153.76L276.29 154.665L275.489 155.557L274.688 156.436L273.888 157.302L273.09 158.156L272.294 158.997L271.503 159.827L270.716 160.645L269.935 161.453L269.161 162.25L268.394 163.037L267.635 163.816L266.886 164.585L266.146 165.347L265.418 166.101L264.701 166.849L263.996 167.591L263.305 168.328L262.628 169.061L261.965 169.79L261.317 170.516L260.685 171.24L260.069 171.964L259.47 172.687L258.888 173.411L258.324 174.137L257.779 174.866L257.251 175.597L256.742 176.334L256.253 177.076L255.782 177.824L255.331 178.579L254.899 179.343L254.486 180.116L254.093 180.898L253.718 181.691L253.362 182.496L253.024 183.313L252.703 184.143L252.399 184.986L252.111 185.843L251.839 186.715L251.581 187.602L251.336 188.503L251.104 189.42L250.883 190.353L250.672 191.301L250.47 192.265L250.275 193.244L250.087 194.239L249.903 195.249L249.722 196.273L249.544 197.312L249.365 198.364L249.185 199.429L249.002 200.506L248.815 201.595L248.622 202.694L248.421 203.802L248.21 204.919L247.989 206.043L247.756 207.172L247.509 208.306L247.246 209.442L246.967 210.581L246.669 211.719L246.353 212.855L246.015 213.988L245.656 215.115L245.274 216.236L244.868 217.349L244.437 218.45L243.98 219.54L243.496 220.615L242.985 221.675L242.447 222.717L241.88 223.739L241.284 224.74L240.66 225.718L240.006 226.671L239.323 227.597L238.611 228.496L237.87 229.365L237.1 230.202L236.301 231.008L235.475 231.78L234.621 232.516L233.741 233.217L232.834 233.881L231.903 234.506L230.947 235.093L229.967 235.641L228.966 236.149L227.943 236.616L226.901 237.044L225.84 237.43L224.761 237.776L223.667 238.081L222.558 238.347L221.436 238.573L220.302 238.76L219.157 238.908L218.004 239.019L216.843 239.094L215.676 239.132L214.504 239.137L213.328 239.108L212.15 239.047L210.972 238.956L209.793 238.835L208.616 238.687L207.442 238.513L206.271 238.315L205.105 238.094L203.945 237.852L202.79 237.592L201.643 237.315L200.504 237.022L199.374 236.717L198.252 236.4L197.141 236.073L196.039 235.74L194.947 235.401L193.866 235.058L192.796 234.713L191.736 234.368L190.687 234.024L189.649 233.684L188.621 233.348L187.604 233.018L186.596 232.695L185.598 232.38L184.609 232.075L183.63 231.78L182.658 231.496L181.694 231.225L180.737 230.966L179.787 230.721L178.843 230.491L177.904 230.276L176.97 230.077L176.04 229.895L175.113 229.73L174.189 229.584L173.266 229.455L172.344 229.346L171.423 229.256L170.5 229.185L169.577 229.135L168.65 229.104L167.721 229.095L166.787 229.105L165.849 229.137L164.904 229.189L163.953 229.261L162.994 229.354L162.027 229.468L161.051 229.601L160.065 229.754L159.068 229.926L158.059 230.118L157.038 230.328L156.004 230.555L154.956 230.8L153.894 231.062L152.816 231.339L151.723 231.632L150.613 231.939L149.486 232.26L148.343 232.593L147.181 232.937L146.001 233.292L144.802 233.656L143.585 234.029L142.348 234.409L141.092 234.795L139.816 235.186L138.521 235.581L137.206 235.978L135.871 236.377L134.516 236.775L133.141 237.171L131.747 237.565L130.334 237.955L128.901 238.34L127.45 238.718L125.98 239.088L124.492 239.449L122.986 239.799L121.463 240.138L119.923 240.463L118.367 240.774L116.796 241.069L115.21 241.348L113.61 241.609L111.996 241.851L110.37 242.072L108.732 242.273L107.083 242.451L105.423 242.606L103.755 242.737L102.077 242.842L100.393 242.922L98.7019 242.975L97.0051 243L95.3034 242.997L93.5974 242.967L91.888 242.907L90.1756 242.819L88.4609 242.702L86.7444 242.556L85.0266 242.381L83.3078 242.177L81.5884 241.944L79.8688 241.683L78.1493 241.393L76.4302 241.075L74.7117 240.729L72.994 240.355L71.2774 239.954L69.5621 239.525L67.8483 239.069L66.1363 238.587L64.4264 238.077L62.7188 237.541L61.0139 236.978L59.312 236.388L57.6136 235.772L55.9192 235.13L54.2293 234.461L52.5447 233.765L50.866 233.042L49.1942 232.292L47.5301 231.514L45.8749 230.709L44.2298 229.875L42.5959 229.014L40.9745 228.123L39.3668 227.204L37.7741 226.255L36.1978 225.277L34.6391 224.27L33.0993 223.233L31.5798 222.167L30.082 221.071L28.6071 219.945L27.1565 218.79L25.7315 217.606L24.3335 216.392L22.9638 215.15L21.6236 213.879L20.3143 212.579L19.0371 211.252L17.7933 209.897L16.584 208.515L15.4104 207.106L14.2737 205.671L13.1748 204.211L12.1149 202.727L11.095 201.218L10.1159 199.686L9.17856 198.131L8.28388 196.555L7.4325 194.957L6.62522 193.34L5.86264 191.704L5.14533 190.05L4.47382 188.379L3.84855 186.692L3.26987 184.99L2.7381 183.273L2.25348 181.544L1.81617 179.804L1.42621 178.052L1.08369 176.291L0.788489 174.521L0.540503 172.744L0.339575 170.961L0.185401 169.172L0.0776738 167.38L0.0160285 165.584L6.92503e-06 163.787L0.0290598 161.989L0.102699 160.19L0.220253 158.393L0.381081 156.599L0.58445 154.807L0.829598 153.02L1.11573 151.237L1.44202 149.461L1.80756 147.691L2.21146 145.929L2.65281 144.175L3.13062 142.431L3.64393 140.696Z" fill="url(#paint0_linear_13_16)" fill-opacity="0.5" />
	<defs>
		<linearGradient id="paint0_linear_13_16" x1="10.6474" y1="189.54" x2="286.986" y2="49.5329" gradientUnits="userSpaceOnUse">
			<stop offset="0.207588" stop-color="#89DDE8" />
			<stop offset="0.983046" stop-color="#AADCEC" stop-opacity="0.6" />
		</linearGradient>
	</defs>
</svg>
