<svg viewBox="0 0 295 281" fill="none" xmlns="http://www.w3.org/2000/svg">
<path fill-rule="evenodd" clip-rule="evenodd" d="M106.805 215.304L105.544 214.566L104.193 214.01L102.746 213.631L101.195 213.422L99.5348 213.373L97.761 213.475L95.8711 213.715L93.8642 214.079L91.7406 214.552L89.5028 215.118L87.1544 215.758L84.7008 216.455L82.1488 217.191L79.5065 217.948L76.783 218.707L73.9881 219.452L71.1322 220.167L68.2255 220.837L65.2779 221.45L62.2987 221.996L59.2973 222.465L56.2834 222.848L53.2667 223.138L50.257 223.328L47.2639 223.411L44.2972 223.383L41.3663 223.239L38.4806 222.976L35.6491 222.591L32.8806 222.083L30.1838 221.45L27.5666 220.693L25.037 219.811L22.6022 218.807L20.2694 217.681L18.0449 216.436L15.9348 215.075L13.9446 213.601L12.0794 212.019L10.3436 210.332L8.741 208.546L7.27504 206.665L5.94838 204.696L4.7631 202.644L3.72066 200.515L2.82184 198.315L2.06673 196.051L1.45475 193.73L0.984614 191.358L0.654325 188.943L0.461131 186.49L0.401627 184.008L0.471603 181.502L0.666177 178.98L0.979788 176.447L1.40613 173.912L1.93828 171.378L2.56869 168.853L3.28916 166.342L4.09108 163.85L4.96527 161.382L5.90216 158.941L6.89187 156.533L7.92425 154.159L8.98897 151.823L10.0757 149.526L11.1741 147.271L12.274 145.058L13.3655 142.888L14.439 140.76L15.4857 138.673L16.4971 136.627L17.4655 134.619L18.3842 132.647L19.2472 130.709L20.0498 128.8L20.7883 126.919L21.46 125.062L22.0637 123.224L22.5993 121.403L23.0678 119.594L23.4717 117.795L23.8142 116.001L24.0999 114.21L24.3341 112.419L24.5227 110.626L24.6723 108.828L24.7896 107.025L24.8812 105.215L24.9531 103.397L25.0106 101.57L25.0576 99.7345L25.097 97.8885L25.1323 96.0322L25.1682 94.1654L25.2102 92.2889L25.2639 90.4034L25.3354 88.5102L25.4303 86.6109L25.5539 84.7073L25.7111 82.8013L25.9059 80.895L26.1419 78.9903L26.4218 77.0894L26.7475 75.194L27.1205 73.306L27.5413 71.427L28.0099 69.5583L28.5257 67.7011L29.0876 65.8562L29.6942 64.0243L30.3437 62.2058L31.0342 60.401L31.7634 58.6097L32.5291 56.832L33.3291 55.0674L34.1613 53.3156L35.0236 51.576L35.914 49.8482L36.8311 48.1317L37.7732 46.4259L38.7394 44.7306L39.7286 43.0454L40.7404 41.3702L41.7743 39.7051L42.8302 38.0503L43.9085 36.4062L45.0095 34.7735L46.1338 33.1531L47.2822 31.546L48.4556 29.9536L49.6551 28.3774L50.8819 26.8193L52.137 25.2811L53.4216 23.7649L54.7369 22.2732L56.084 20.8083L57.4639 19.3728L58.8774 17.9694L60.3254 16.6009L61.8086 15.27L63.3274 13.9796L64.8822 12.7325L66.4731 11.5316L68.1 10.3798L69.7629 9.27989L71.4612 8.23457L73.1944 7.24657L74.9617 6.31852L76.7623 5.4529L78.5949 4.65216L80.4583 3.91858L82.351 3.25431L84.2714 2.66133L86.2176 2.14144L88.1877 1.69619L90.1795 1.32693L92.1907 1.03463L94.2188 0.819948L96.2612 0.683106L98.3149 0.623829L100.377 0.641276L102.444 0.733902L104.513 0.899378L106.581 1.13448L108.643 1.43493L110.697 1.79574L112.738 2.21187L114.765 2.6786L116.775 3.19159L118.765 3.74696L120.734 4.34141L122.681 4.97215L124.605 5.63699L126.504 6.33426L128.379 7.06277L130.228 7.82173L132.052 8.61076L133.849 9.42969L135.619 10.2786L137.362 11.1575L139.077 12.0665L140.764 13.0057L142.422 13.9748L144.051 14.9733L145.65 16.0004L147.219 17.0548L148.756 18.1348L150.262 19.2382L151.737 20.3621L153.179 21.5034L154.589 22.6581L155.968 23.8219L157.315 24.99L158.632 26.1571L159.919 27.3174L161.178 28.4649L162.411 29.5934L163.619 30.6964L164.806 31.7672L165.975 32.7994L167.128 33.7864L168.269 34.7219L169.403 35.5998L170.533 36.4145L171.664 37.1607L172.801 37.8335L173.949 38.4288L175.113 38.943L176.298 39.3733L177.508 39.7174L178.75 39.9739L180.029 40.1421L181.348 40.2222L182.713 40.215L184.129 40.122L185.599 39.9456L187.127 39.6885L188.718 39.3546L190.373 38.9477L192.096 38.4727L193.89 37.9344L195.756 37.3385L197.695 36.6907L199.71 35.9971L201.801 35.2638L203.969 34.4973L206.212 33.7042L208.532 32.8912L210.927 32.0648L213.397 31.2321L215.939 30.3998L218.551 29.5751L221.231 28.7653L223.975 27.9779L226.779 27.2209L229.638 26.5025L232.545 25.8318L235.493 25.2185L238.472 24.6728L241.473 24.2048L244.484 23.8243L247.494 23.5408L250.492 23.3629L253.465 23.2984L256.402 23.354L259.289 23.5356L262.117 23.8476L264.872 24.2935L267.546 24.8756L270.126 25.5948L272.605 26.4511L274.973 27.4433L277.223 28.5689L279.347 29.8249L281.342 31.207L283.2 32.7103L284.92 34.3291L286.498 36.0569L287.932 37.887L289.223 39.8119L290.369 41.8241L291.374 43.9156L292.238 46.0784L292.965 48.3042L293.559 50.585L294.024 52.9126L294.365 55.2792L294.589 57.677L294.703 60.0987L294.712 62.537L294.624 64.9854L294.448 67.4375L294.19 69.8875L293.86 72.33L293.465 74.7601L293.015 77.1735L292.517 79.5663L291.979 81.9354L291.411 84.2779L290.82 86.5916L290.213 88.8749L289.599 91.1266L288.983 93.346L288.374 95.5329L287.776 97.6876L287.195 99.8108L286.637 101.903L286.104 103.967L285.601 106.003L285.129 108.014L284.691 110.001L284.287 111.967L283.917 113.914L283.58 115.845L283.273 117.761L282.995 119.666L282.741 121.561L282.506 123.448L282.285 125.328L282.071 127.203L281.857 129.073L281.637 130.939L281.401 132.801L281.143 134.658L280.854 136.508L280.526 138.352L280.153 140.186L279.728 142.008L279.247 143.817L278.706 145.61L278.104 147.385L277.443 149.14L276.722 150.873L275.941 152.582L275.098 154.265L274.192 155.92L273.22 157.542L272.181 159.129L271.073 160.679L269.895 162.188L268.647 163.654L267.329 165.073L265.943 166.444L264.49 167.763L262.974 169.03L261.398 170.242L259.765 171.4L258.081 172.502L256.352 173.548L254.583 174.539L252.78 175.477L250.95 176.362L249.1 177.197L247.236 177.984L245.366 178.727L243.496 179.429L241.632 180.093L239.782 180.724L237.951 181.326L236.145 181.904L234.369 182.462L232.628 183.007L230.926 183.542L229.268 184.073L227.657 184.606L226.095 185.144L224.586 185.695L223.13 186.261L221.73 186.849L220.386 187.464L219.098 188.109L217.866 188.789L216.691 189.509L215.571 190.272L214.504 191.082L213.49 191.943L212.527 192.859L211.612 193.833L210.743 194.866L209.917 195.964L209.132 197.127L208.384 198.359L207.671 199.661L206.989 201.036L206.335 202.484L205.704 204.009L205.093 205.61L204.499 207.289L203.917 209.047L203.344 210.884L202.774 212.799L202.203 214.793L201.628 216.864L201.043 219.012L200.444 221.233L199.826 223.527L199.184 225.889L198.514 228.315L197.809 230.802L197.066 233.343L196.279 235.932L195.443 238.56L194.553 241.22L193.605 243.901L192.593 246.593L191.514 249.282L190.363 251.955L189.138 254.599L187.835 257.198L186.452 259.737L184.988 262.199L183.443 264.57L181.817 266.832L180.111 268.971L178.328 270.971L176.47 272.818L174.542 274.497L172.549 275.998L170.496 277.307L168.39 278.415L166.238 279.312L164.047 279.992L161.826 280.449L159.583 280.678L157.327 280.677L155.067 280.444L152.811 279.982L150.57 279.292L148.351 278.38L146.163 277.25L144.014 275.911L141.912 274.372L139.864 272.644L137.877 270.74L135.955 268.672L134.104 266.456L132.327 264.107L130.627 261.643L129.007 259.082L127.466 256.441L126.004 253.74L124.62 250.998L123.312 248.236L122.075 245.471L120.905 242.725L119.795 240.016L118.739 237.362L117.73 234.783L116.758 232.294L115.814 229.913L114.889 227.654L113.97 225.532L113.048 223.557L112.111 221.742L111.148 220.095L110.147 218.624L109.096 217.333L107.986 216.225L106.805 215.304Z" fill="url(#paint0_linear_15_96)" fill-opacity="0.5"/>
<defs>
<linearGradient id="paint0_linear_15_96" x1="344" y1="53.5" x2="9.99996" y2="196.5" gradientUnits="userSpaceOnUse">
<stop offset="0.141553" stop-color="#73BBC5"/>
<stop offset="0.570351" stop-color="#AADCEC" stop-opacity="0.6"/>
</linearGradient>
</defs>
</svg>
