<svg width="306" height="378" viewBox="0 0 306 378" fill="none" xmlns="http://www.w3.org/2000/svg">
	<path fill-rule="evenodd" clip-rule="evenodd" d="M305.995 214.918L305.953 216.439L305.873 217.959L305.756 219.476L305.6 220.99L305.408 222.501L305.177 224.006L304.91 225.506L304.605 226.999L304.264 228.486L303.886 229.964L303.472 231.433L303.022 232.892L302.538 234.341L302.019 235.779L301.467 237.205L300.881 238.618L300.264 240.019L299.615 241.405L298.937 242.778L298.229 244.135L297.493 245.478L296.73 246.805L295.941 248.115L295.127 249.41L294.29 250.688L293.431 251.949L292.551 253.194L291.651 254.422L290.733 255.633L289.799 256.826L288.849 258.004L287.884 259.164L286.908 260.308L285.92 261.436L284.922 262.549L283.916 263.645L282.902 264.727L281.882 265.795L280.858 266.848L279.831 267.888L278.801 268.915L277.77 269.929L276.739 270.932L275.709 271.925L274.681 272.907L273.656 273.879L272.634 274.843L271.617 275.798L270.605 276.747L269.598 277.688L268.598 278.624L267.604 279.555L266.617 280.481L265.637 281.403L264.665 282.322L263.701 283.24L262.746 284.156L261.8 285.071L260.862 285.987L259.933 286.903L259.013 287.821L258.103 288.742L257.201 289.666L256.309 290.593L255.426 291.526L254.551 292.464L253.686 293.407L252.829 294.358L251.98 295.315L251.139 296.281L250.306 297.255L249.48 298.238L248.66 299.23L247.847 300.232L247.04 301.245L246.238 302.268L245.441 303.303L244.648 304.348L243.858 305.406L243.071 306.475L242.285 307.556L241.502 308.649L240.718 309.755L239.935 310.872L239.15 312.002L238.364 313.144L237.575 314.298L236.783 315.464L235.987 316.641L235.185 317.83L234.378 319.03L233.564 320.24L232.742 321.461L231.912 322.691L231.073 323.931L230.224 325.18L229.364 326.437L228.492 327.702L227.609 328.974L226.712 330.252L225.801 331.536L224.876 332.825L223.936 334.117L222.98 335.413L222.007 336.71L221.017 338.009L220.009 339.307L218.983 340.604L217.937 341.898L216.872 343.189L215.786 344.475L214.68 345.754L213.554 347.026L212.405 348.289L211.236 349.543L210.044 350.784L208.83 352.013L207.595 353.227L206.336 354.427L205.056 355.609L203.753 356.773L202.428 357.918L201.08 359.042L199.711 360.144L198.319 361.222L196.906 362.277L195.472 363.305L194.017 364.307L192.541 365.281L191.046 366.226L189.531 367.14L187.996 368.024L186.444 368.875L184.873 369.694L183.285 370.478L181.681 371.227L180.06 371.941L178.425 372.618L176.775 373.259L175.112 373.861L173.436 374.424L171.748 374.948L170.049 375.433L168.34 375.877L166.622 376.28L164.896 376.642L163.162 376.961L161.421 377.239L159.676 377.474L157.925 377.665L156.172 377.814L154.416 377.919L152.658 377.981L150.9 378L149.142 377.976L147.386 377.908L145.633 377.798L143.882 377.645L142.136 377.45L140.396 377.214L138.661 376.936L136.933 376.618L135.213 376.26L133.501 375.863L131.799 375.428L130.107 374.955L128.426 374.445L126.755 373.9L125.097 373.32L123.451 372.706L121.819 372.059L120.199 371.38L118.594 370.671L117.002 369.932L115.426 369.165L113.864 368.371L112.317 367.55L110.785 366.705L109.269 365.837L107.768 364.945L106.283 364.033L104.813 363.1L103.358 362.149L101.918 361.18L100.494 360.195L99.0843 359.194L97.6893 358.179L96.3087 357.151L94.9421 356.112L93.5892 355.061L92.2496 354L90.9228 352.931L89.6084 351.854L88.3059 350.77L87.0148 349.68L85.7346 348.585L84.4646 347.485L83.2044 346.382L81.9533 345.276L80.7109 344.168L79.4766 343.058L78.25 341.947L77.0305 340.834L75.8177 339.721L74.6113 338.606L73.4109 337.492L72.2162 336.376L71.0268 335.26L69.8426 334.143L68.6633 333.026L67.4888 331.907L66.3188 330.787L65.1534 329.666L63.9923 328.543L62.8357 327.417L61.6835 326.289L60.5357 325.159L59.3925 324.025L58.2538 322.888L57.1199 321.747L55.9909 320.601L54.867 319.451L53.7484 318.295L52.6352 317.135L51.5278 315.968L50.4265 314.795L49.3313 313.615L48.2428 312.428L47.1611 311.234L46.0865 310.033L45.0194 308.824L43.96 307.606L42.9086 306.381L41.8656 305.146L40.8312 303.903L39.8057 302.651L38.7894 301.39L37.7825 300.119L36.7852 298.839L35.7979 297.55L34.8206 296.252L33.8536 294.943L32.8971 293.626L31.9511 292.299L31.0157 290.962L30.0911 289.616L29.1774 288.26L28.2746 286.895L27.3827 285.521L26.5019 284.138L25.6323 282.745L24.7739 281.343L23.9268 279.932L23.0912 278.512L22.267 277.083L21.4545 275.645L20.6537 274.198L19.8647 272.742L19.0877 271.277L18.3228 269.804L17.5701 268.321L16.8299 266.83L16.1022 265.33L15.3873 263.822L14.6852 262.304L13.9963 260.778L13.3208 259.244L12.6587 257.701L12.0105 256.15L11.3762 254.59L10.7562 253.022L10.1507 251.446L9.5599 249.862L8.98418 248.269L8.42376 246.669L7.87894 245.06L7.34999 243.444L6.8372 241.82L6.34087 240.189L5.86128 238.55L5.39873 236.903L4.95351 235.25L4.52589 233.59L4.11617 231.922L3.72462 230.249L3.3515 228.568L2.99707 226.882L2.66156 225.189L2.34523 223.491L2.04827 221.786L1.7709 220.077L1.5133 218.362L1.27563 216.643L1.05804 214.918L0.860659 213.19L0.683581 211.457L0.526879 209.72L0.390593 207.98L0.274732 206.236L0.179275 204.489L0.10417 202.739L0.0493355 200.987L0.0146589 199.232L0 197.474L0.00518952 195.715L0.0300306 193.954L0.0742996 192.192L0.137747 190.427L0.220099 188.662L0.321057 186.896L0.440302 185.128L0.577494 183.359L0.732275 181.59L0.904267 179.82L1.09308 178.049L1.29832 176.278L1.51955 174.505L1.75637 172.732L2.00835 170.959L2.27505 169.184L2.55604 167.408L2.85089 165.632L3.15919 163.854L3.48052 162.075L3.81447 160.295L4.16067 158.513L4.51874 156.729L4.88833 154.943L5.26914 153.154L5.66086 151.363L6.06324 149.57L6.47605 147.773L6.89912 145.973L7.33229 144.17L7.77547 142.363L8.22861 140.552L8.69172 138.737L9.16486 136.918L9.64813 135.094L10.1417 133.266L10.6459 131.433L11.1609 129.595L11.6871 127.752L12.2249 125.905L12.7749 124.053L13.3374 122.197L13.9128 120.336L14.5017 118.47L15.1045 116.6L15.7217 114.726L16.3536 112.849L17.0007 110.967L17.6636 109.082L18.3427 107.193L19.0384 105.301L19.7511 103.407L20.4815 101.509L21.2298 99.6097L21.9966 97.7082L22.7823 95.8051L23.5873 93.9007L24.4122 91.9954L25.2574 90.0897L26.1233 88.1839L27.0103 86.2786L27.9189 84.3742L28.8495 82.4713L29.8026 80.5703L30.7785 78.6719L31.7777 76.7766L32.8006 74.885L33.8475 72.9978L34.9188 71.1156L36.015 69.2392L37.1363 67.3691L38.2831 65.5062L39.4557 63.6512L40.6545 61.8049L41.8797 59.9682L43.1317 58.1417L44.4106 56.3265L45.7167 54.5233L47.0502 52.7331L48.4114 50.9567L49.8003 49.1951L51.2172 47.4493L52.6621 45.7202L54.1352 44.0088L55.6365 42.3161L57.1661 40.6431L58.7239 38.9908L60.3099 37.3603L61.9241 35.7525L63.5663 34.1685L65.2365 32.6093L66.9345 31.076L68.66 29.5696L70.4129 28.091L72.1928 26.6413L73.9994 25.2215L75.8324 23.8324L77.6914 22.475L79.5759 21.1503L81.4855 19.8592L83.4196 18.6024L85.3779 17.3809L87.3596 16.1954L89.3642 15.0469L91.391 13.9359L93.4395 12.8633L95.5089 11.8298L97.5985 10.836L99.7076 9.88252L101.835 8.97008L103.981 8.09921L106.144 7.27044L108.323 6.4843L110.518 5.74128L112.727 5.04181L114.95 4.38633L117.186 3.77523L119.434 3.20887L121.693 2.68758L123.962 2.21167L126.241 1.78143L128.527 1.39712L130.821 1.05896L133.121 0.767174L135.427 0.521954L137.737 0.323475L140.051 0.1719L142.367 0.0673735L144.684 0.0100316L147.003 0L149.32 0.0373973L151.637 0.122337L153.95 0.254932L156.261 0.435292L158.567 0.663533L160.868 0.939772L163.162 1.26414L165.448 1.63676L167.727 2.05772L169.995 2.52706L172.253 3.04478L174.5 3.6108L176.733 4.22502L178.953 4.88726L181.159 5.59731L183.348 6.35489L185.521 7.15965L187.675 8.01123L189.811 8.90917L191.927 9.85298L194.023 10.8421L196.096 11.8759L198.147 12.9538L200.175 14.0751L202.178 15.2389L204.155 16.4445L206.107 17.691L208.032 18.9774L209.929 20.303L211.797 21.6665L213.637 23.067L215.447 24.5034L217.227 25.9746L218.976 27.4794L220.694 29.0166L222.38 30.5849L224.034 32.1832L225.656 33.81L227.245 35.4642L228.8 37.1443L230.323 38.849L231.812 40.5769L233.267 42.3267L234.689 44.0969L236.077 45.8862L237.432 47.6931L238.753 49.5161L240.041 51.354L241.296 53.2053L242.518 55.0687L243.707 56.9426L244.864 58.8258L245.989 60.7169L247.083 62.6145L248.146 64.5174L249.178 66.4243L250.18 68.3338L251.153 70.2449L252.098 72.1562L253.014 74.0665L253.903 75.9746L254.765 77.8795L255.602 79.7798L256.414 81.6746L257.202 83.5626L257.967 85.4429L258.71 87.3145L259.431 89.1763L260.133 91.0274L260.816 92.867L261.481 94.6941L262.129 96.5082L262.761 98.3083L263.379 100.094L263.983 101.864L264.575 103.619L265.155 105.358L265.725 107.08L266.286 108.785L266.839 110.473L267.384 112.143L267.924 113.796L268.459 115.43L268.99 117.047L269.518 118.647L270.043 120.228L270.568 121.792L271.092 123.338L271.617 124.868L272.142 126.38L272.67 127.876L273.2 129.356L273.734 130.819L274.272 132.268L274.814 133.702L275.361 135.121L275.913 136.527L276.471 137.92L277.036 139.3L277.607 140.668L278.185 142.025L278.77 143.372L279.363 144.708L279.963 146.036L280.572 147.355L281.188 148.666L281.812 149.97L282.444 151.268L283.085 152.561L283.732 153.848L284.388 155.132L285.051 156.413L285.72 157.692L286.396 158.969L287.077 160.245L287.763 161.522L288.453 162.8L289.147 164.08L289.843 165.363L290.541 166.649L291.239 167.94L291.937 169.235L292.632 170.536L293.325 171.844L294.013 173.158L294.696 174.479L295.372 175.808L296.039 177.146L296.697 178.492L297.344 179.848L297.978 181.212L298.598 182.586L299.203 183.97L299.79 185.364L300.359 186.767L300.909 188.181L301.437 189.603L301.942 191.036L302.424 192.478L302.88 193.929L303.309 195.388L303.711 196.856L304.083 198.332L304.426 199.816L304.737 201.306L305.016 202.802L305.262 204.305L305.474 205.812L305.651 207.323L305.793 208.838L305.898 210.356L305.968 211.876L306 213.397L305.995 214.918Z" fill="url(#paint0_linear_15_97)" fill-opacity="0.5" />
	<defs>
		<linearGradient id="paint0_linear_15_97" x1="328.5" y1="89.5" x2="23.0001" y2="254.5" gradientUnits="userSpaceOnUse">
			<stop offset="0.0749745" stop-color="#d6e9f0" stop-opacity="0.4" />
			<stop offset="0.784357" stop-color="#AADCEC" stop-opacity="0.4" />
		</linearGradient>
	</defs>
</svg>
