<svg width="313" height="292" viewBox="0 0 313 292" fill="none" xmlns="http://www.w3.org/2000/svg">
	<path fill-rule="evenodd" clip-rule="evenodd" d="M294.431 148.751L293.38 150.196L292.319 151.618L291.25 153.017L290.172 154.393L289.087 155.745L287.996 157.075L286.899 158.383L285.797 159.667L284.689 160.93L283.577 162.17L282.46 163.388L281.339 164.583L280.215 165.757L279.088 166.91L277.957 168.04L276.824 169.15L275.689 170.238L274.552 171.305L273.414 172.351L272.276 173.378L271.139 174.384L270.005 175.371L268.877 176.339L267.755 177.291L266.643 178.225L265.542 179.144L264.456 180.049L263.388 180.942L262.339 181.824L261.314 182.698L260.316 183.564L259.348 184.427L258.413 185.288L257.515 186.15L256.657 187.015L255.841 187.888L255.07 188.769L254.346 189.664L253.671 190.574L253.048 191.502L252.476 192.451L251.958 193.425L251.493 194.426L251.083 195.457L250.727 196.52L250.425 197.619L250.176 198.754L249.979 199.929L249.832 201.146L249.733 202.405L249.681 203.709L249.673 205.059L249.706 206.455L249.777 207.899L249.883 209.391L250.021 210.93L250.186 212.518L250.374 214.152L250.583 215.834L250.807 217.56L251.042 219.331L251.284 221.145L251.529 222.999L251.772 224.891L252.008 226.82L252.233 228.782L252.444 230.774L252.634 232.793L252.801 234.836L252.94 236.899L253.047 238.978L253.119 241.07L253.151 243.17L253.14 245.274L253.083 247.378L252.977 249.477L252.819 251.566L252.607 253.642L252.338 255.699L252.01 257.734L251.621 259.741L251.17 261.715L250.656 263.654L250.077 265.551L249.434 267.403L248.725 269.206L247.951 270.956L247.112 272.649L246.208 274.282L245.24 275.851L244.21 277.352L243.117 278.785L241.965 280.145L240.755 281.43L239.488 282.639L238.167 283.77L236.794 284.821L235.372 285.791L233.904 286.681L232.392 287.489L230.839 288.216L229.249 288.862L227.625 289.427L225.969 289.914L224.285 290.322L222.576 290.655L220.845 290.914L219.097 291.102L217.333 291.22L215.557 291.273L213.772 291.263L211.981 291.193L210.186 291.067L208.391 290.89L206.598 290.666L204.809 290.399L203.027 290.095L201.255 289.758L199.493 289.394L197.744 289.009L196.01 288.607L194.29 288.193L192.587 287.773L190.901 287.352L189.233 286.933L187.581 286.522L185.947 286.121L184.331 285.735L182.731 285.367L181.147 285.019L179.578 284.695L178.023 284.397L176.482 284.128L174.953 283.89L173.434 283.685L171.925 283.514L170.424 283.378L168.93 283.279L167.44 283.218L165.953 283.194L164.469 283.207L162.984 283.259L161.498 283.347L160.008 283.471L158.514 283.631L157.014 283.824L155.507 284.05L153.99 284.307L152.464 284.591L150.926 284.902L149.376 285.236L147.812 285.591L146.235 285.964L144.644 286.352L143.037 286.751L141.415 287.159L139.778 287.572L138.125 287.986L136.457 288.398L134.774 288.804L133.077 289.201L131.365 289.585L129.641 289.952L127.904 290.3L126.156 290.624L124.397 290.921L122.631 291.189L120.857 291.423L119.077 291.621L117.293 291.781L115.506 291.898L113.719 291.972L111.933 292L110.151 291.98L108.372 291.909L106.601 291.787L104.839 291.612L103.087 291.383L101.348 291.098L99.6226 290.758L97.9139 290.362L96.2232 289.91L94.5522 289.4L92.9025 288.835L91.2757 288.214L89.6733 287.538L88.0966 286.806L86.5469 286.022L85.0253 285.185L83.5331 284.297L82.071 283.358L80.6399 282.372L79.2407 281.339L77.8738 280.26L76.5398 279.139L75.2392 277.976L73.9721 276.774L72.7387 275.534L71.5392 274.259L70.3734 272.95L69.2411 271.61L68.1421 270.241L67.0759 268.845L66.0421 267.425L65.0401 265.981L64.0691 264.517L63.1286 263.034L62.2173 261.535L61.334 260.022L60.4772 258.497L59.6451 256.964L58.8358 255.423L58.0472 253.879L57.277 252.333L56.5228 250.788L55.782 249.247L55.0521 247.71L54.3303 246.182L53.614 244.662L52.9003 243.154L52.1866 241.658L51.4699 240.177L50.7478 238.711L50.0175 237.261L49.2764 235.828L48.5222 234.412L47.7525 233.015L46.9651 231.636L46.1579 230.274L45.329 228.931L44.4766 227.605L43.5992 226.296L42.6955 225.003L41.7646 223.725L40.8055 222.461L39.8179 221.209L38.8016 219.968L37.7566 218.736L36.6834 217.512L35.5826 216.293L34.4554 215.078L33.3029 213.865L32.1267 212.651L30.9288 211.434L29.7112 210.213L28.4764 208.985L27.227 207.748L25.9658 206.501L24.6959 205.24L23.4204 203.966L22.1429 202.675L20.8669 201.366L19.5959 200.037L18.3339 198.689L17.0845 197.318L15.8518 195.924L14.6395 194.507L13.4517 193.065L12.2921 191.598L11.1647 190.107L10.0732 188.589L9.0214 187.047L8.01276 185.479L7.0508 183.887L6.13884 182.271L5.28005 180.632L4.47739 178.97L3.73369 177.287L3.05152 175.583L2.43329 173.861L1.88115 172.122L1.39704 170.367L0.982677 168.597L0.63952 166.816L0.368803 165.024L0.171516 163.223L0.0484104 161.416L0 159.604L0.0265652 157.79L0.128157 155.975L0.304603 154.161L0.555514 152.351L0.880288 150.547L1.27812 148.751L1.74802 146.964L2.2888 145.188L2.89909 143.427L3.57737 141.68L4.32192 139.95L5.1309 138.239L6.00229 136.549L6.93392 134.88L7.92349 133.234L8.96852 131.613L10.0664 130.017L11.2144 128.448L12.4095 126.907L13.6487 125.394L14.929 123.911L16.2472 122.457L17.6001 121.033L18.9844 119.64L20.3966 118.277L21.8333 116.945L23.2907 115.643L24.7651 114.371L26.2527 113.127L27.7498 111.913L29.2525 110.726L30.757 109.565L32.2598 108.43L33.7572 107.318L35.2457 106.229L36.7217 105.161L38.1821 104.112L39.6236 103.08L41.0431 102.063L42.4377 101.06L43.805 100.067L45.1424 99.0833L46.4478 98.1063L47.7194 97.1338L48.9554 96.1635L50.1543 95.1932L51.3149 94.2207L52.4363 93.2439L53.5177 92.2605L54.5589 91.2686L55.5596 90.2662L56.5201 89.2516L57.4408 88.2229L58.3223 87.1786L59.1658 86.1174L59.9724 85.0379L60.7435 83.9391L61.4809 82.8201L62.1863 81.6802L62.8618 80.5187L63.5095 79.3353L64.1319 78.1299L64.7312 76.9024L65.3101 75.653L65.8711 74.382L66.417 73.09L66.9503 71.7776L67.4738 70.4456L67.9901 69.0951L68.502 67.727L69.0121 66.3426L69.523 64.9433L70.0371 63.5304L70.557 62.1055L71.0849 60.6701L71.623 59.2259L72.1736 57.7746L72.7386 56.318L73.3198 54.8577L73.9191 53.3955L74.538 51.9333L75.1779 50.4728L75.8402 49.0157L76.5261 47.5637L77.2366 46.1185L77.9725 44.6818L78.7347 43.2552L79.5238 41.84L80.3402 40.4378L81.1843 39.05L82.0564 37.6778L82.9566 36.3225L83.8849 34.9852L84.8413 33.667L85.8255 32.3688L86.8374 31.0915L87.8766 29.8359L88.9427 28.6027L90.0353 27.3926L91.1538 26.2062L92.2977 25.0439L93.4664 23.9061L94.6592 22.7932L95.8754 21.7054L97.1144 20.643L98.3755 19.6062L99.6579 18.5949L100.961 17.6093L102.284 16.6494L103.626 15.7149L104.986 14.8058L106.364 13.9219L107.758 13.0629L109.169 12.2284L110.595 11.418L112.035 10.6315L113.49 9.86841L114.957 9.12844L116.438 8.41138L117.931 7.71723L119.435 7.04611L120.951 6.39834L122.478 5.77443L124.016 5.17502L125.565 4.60095L127.123 4.0532L128.692 3.53294L130.271 3.04144L131.859 2.58014L133.456 2.15061L135.061 1.75453L136.675 1.39369L138.297 1.06995L139.926 0.785243L141.562 0.541453L143.203 0.340449L144.85 0.184044L146.5 0.0740103L148.154 0.0120951L149.81 0L151.467 0.0393431L153.123 0.131629L154.779 0.278217L156.431 0.480303L158.079 0.73889L159.722 1.05477L161.357 1.42852L162.984 1.86047L164.601 2.3507L166.205 2.89904L167.797 3.50507L169.374 4.16808L170.935 4.88713L172.478 5.66098L174.002 6.48816L175.506 7.36695L176.988 8.29536L178.448 9.2712L179.885 10.292L181.297 11.3552L182.684 12.4579L184.045 13.597L185.381 14.7695L186.69 15.9719L187.973 17.2008L189.229 18.4526L190.459 19.7237L191.663 21.0102L192.842 22.3085L193.997 23.6146L195.128 24.9246L196.236 26.2349L197.323 27.5415L198.39 28.8407L199.439 30.1287L200.471 31.402L201.489 32.6571L202.493 33.8905L203.487 35.099L204.472 36.2794L205.451 37.429L206.426 38.5448L207.399 39.6244L208.374 40.6655L209.352 41.6658L210.336 42.6236L211.329 43.5371L212.334 44.4051L213.353 45.2263L214.388 45.9999L215.443 46.7252L216.519 47.402L217.619 48.0302L218.746 48.6099L219.901 49.1416L221.086 49.6262L222.305 50.0646L223.557 50.458L224.845 50.8082L226.171 51.1168L227.535 51.3859L228.938 51.6178L230.382 51.8151L231.866 51.9806L233.391 52.1173L234.957 52.2284L236.564 52.3174L238.21 52.388L239.895 52.4439L241.618 52.4891L243.377 52.5277L245.17 52.5636L246.995 52.6012L248.85 52.6444L250.732 52.6974L252.638 52.7644L254.566 52.8492L256.512 52.9559L258.472 53.0881L260.444 53.2495L262.423 53.4435L264.406 53.6732L266.389 53.9416L268.368 54.2514L270.341 54.605L272.302 55.0046L274.248 55.4518L276.177 55.9482L278.085 56.495L279.968 57.0933L281.823 57.7439L283.648 58.4476L285.438 59.2048L287.192 60.0157L288.905 60.8804L290.576 61.7986L292.201 62.7701L293.778 63.7942L295.305 64.8704L296.78 65.9978L298.2 67.1754L299.562 68.4022L300.866 69.6768L302.11 70.9979L303.291 72.3641L304.409 73.7738L305.461 75.2252L306.447 76.7167L307.366 78.2464L308.217 79.8124L308.998 81.4126L309.71 83.0449L310.352 84.7073L310.924 86.3976L311.425 88.1136L311.857 89.8529L312.218 91.6134L312.51 93.3927L312.734 95.1886L312.889 96.9988L312.978 98.8209L313 100.653L312.958 102.492L312.852 104.337L312.685 106.185L312.458 108.034L312.172 109.882L311.831 111.727L311.434 113.568L310.986 115.401L310.487 117.227L309.94 119.042L309.348 120.847L308.712 122.638L308.035 124.415L307.319 126.176L306.567 127.921L305.78 129.649L304.962 131.357L304.113 133.047L303.237 134.716L302.336 136.364L301.411 137.991L300.465 139.596L299.499 141.179L298.515 142.739L297.515 144.276L296.5 145.791L295.471 147.282L294.431 148.751Z" fill="url(#paint0_linear_15_100)" fill-opacity="0.5" />
	<defs>
		<linearGradient id="paint0_linear_15_100" x1="319.5" y1="46" x2="99.5001" y2="224.5" gradientUnits="userSpaceOnUse">
			<stop offset="0.0749745" stop-color="#d6e9f0" stop-opacity="0.4" />
			<stop offset="0.784357" stop-color="#AADCEC" stop-opacity="0.4" />
		</linearGradient>
	</defs>
</svg>
