<svg width="304" height="348" viewBox="0 0 304 348" fill="none" xmlns="http://www.w3.org/2000/svg">
<path fill-rule="evenodd" clip-rule="evenodd" d="M283.733 185.157L283.305 186.719L282.965 188.273L282.716 189.823L282.56 191.373L282.5 192.927L282.535 194.489L282.667 196.063L282.893 197.653L283.211 199.262L283.619 200.895L284.112 202.554L284.686 204.243L285.334 205.964L286.05 207.719L286.828 209.512L287.66 211.342L288.537 213.211L289.453 215.12L290.4 217.07L291.369 219.06L292.353 221.09L293.343 223.159L294.33 225.266L295.303 227.407L296.253 229.582L297.171 231.786L298.049 234.017L298.878 236.272L299.653 238.546L300.368 240.837L301.016 243.141L301.594 245.455L302.099 247.775L302.528 250.098L302.879 252.422L303.153 254.744L303.347 257.062L303.464 259.372L303.503 261.675L303.467 263.968L303.358 266.249L303.177 268.519L302.928 270.776L302.612 273.02L302.234 275.25L301.796 277.467L301.301 279.671L300.751 281.862L300.15 284.04L299.5 286.206L298.803 288.359L298.061 290.501L297.277 292.631L296.45 294.749L295.584 296.856L294.678 298.95L293.733 301.032L292.75 303.101L291.729 305.156L290.669 307.196L289.57 309.219L288.431 311.224L287.252 313.209L286.033 315.172L284.771 317.11L283.465 319.02L282.116 320.9L280.721 322.747L279.28 324.558L277.791 326.329L276.254 328.056L274.668 329.737L273.032 331.366L271.346 332.941L269.609 334.458L267.821 335.913L265.983 337.302L264.094 338.622L262.155 339.868L260.167 341.038L258.13 342.127L256.047 343.133L253.918 344.052L251.744 344.882L249.528 345.62L247.272 346.262L244.978 346.807L242.648 347.252L240.284 347.595L237.89 347.836L235.469 347.971L233.022 348L230.555 347.922L228.069 347.737L225.568 347.444L223.056 347.043L220.536 346.534L218.013 345.92L215.489 345.201L212.968 344.378L210.456 343.456L207.955 342.437L205.47 341.325L203.005 340.127L200.564 338.847L198.151 337.494L195.77 336.072L193.424 334.589L191.114 333.049L188.844 331.458L186.617 329.821L184.432 328.145L182.293 326.433L180.2 324.69L178.155 322.921L176.158 321.13L174.21 319.323L172.311 317.504L170.461 315.679L168.662 313.853L166.911 312.032L165.211 310.223L163.558 308.43L161.953 306.662L160.395 304.925L158.882 303.225L157.412 301.569L155.983 299.965L154.592 298.419L153.238 296.938L151.916 295.528L150.624 294.196L149.359 292.946L148.115 291.783L146.89 290.714L145.679 289.74L144.478 288.866L143.283 288.095L142.089 287.428L140.891 286.866L139.686 286.411L138.469 286.06L137.237 285.815L135.984 285.671L134.707 285.628L133.403 285.681L132.069 285.827L130.701 286.061L129.297 286.378L127.854 286.772L126.372 287.237L124.848 287.766L123.281 288.353L121.671 288.991L120.017 289.672L118.32 290.388L116.58 291.133L114.797 291.898L112.973 292.677L111.109 293.463L109.207 294.248L107.268 295.025L105.296 295.789L103.291 296.534L101.257 297.253L99.1961 297.942L97.1105 298.596L95.0028 299.211L92.8755 299.784L90.731 300.311L88.5717 300.79L86.3997 301.218L84.2171 301.593L82.0258 301.916L79.8276 302.184L77.624 302.397L75.4165 302.555L73.2062 302.659L70.9943 302.707L68.7818 302.702L66.5697 302.643L64.359 302.53L62.1506 302.365L59.9456 302.147L57.7453 301.876L55.5512 301.553L53.3652 301.177L51.1897 300.747L49.0274 300.261L46.882 299.718L44.7575 299.115L42.6579 298.451L40.5875 297.724L38.5502 296.932L36.5499 296.074L34.5902 295.151L32.675 294.161L30.8079 293.104L28.9928 291.98L27.2332 290.79L25.5328 289.534L23.8947 288.211L22.322 286.825L20.8174 285.375L19.3833 283.864L18.0215 282.294L16.7337 280.667L15.5209 278.985L14.3839 277.252L13.3228 275.471L12.3374 273.644L11.4271 271.777L10.5906 269.871L9.82639 267.931L9.13248 265.96L8.50656 263.963L7.94597 261.943L7.44777 259.903L7.00876 257.847L6.62551 255.778L6.29445 253.7L6.01183 251.616L5.77383 249.529L5.57657 247.44L5.41613 245.353L5.28864 243.27L5.19025 241.193L5.11718 239.123L5.0658 237.061L5.03256 235.01L5.01409 232.97L5.00718 230.942L5.0088 228.926L5.01613 226.923L5.02653 224.933L5.03757 222.956L5.04703 220.992L5.05289 219.04L5.05334 217.1L5.04675 215.171L5.0317 213.254L5.00694 211.346L4.97139 209.448L4.92415 207.558L4.86444 205.675L4.79167 203.799L4.70538 201.928L4.60521 200.062L4.49099 198.199L4.36265 196.338L4.22024 194.478L4.06396 192.618L3.89417 190.757L3.71134 188.894L3.51613 187.027L3.30936 185.157L3.09205 183.281L2.86541 181.399L2.63089 179.51L2.39016 177.613L2.14523 175.708L1.89839 173.794L1.65226 171.87L1.40971 169.936L1.17393 167.993L0.948363 166.04L0.736749 164.077L0.543083 162.105L0.371616 160.125L0.226828 158.138L0.113396 156.144L0.0361476 154.145L0 152.144L0.00988509 150.141L0.0706532 148.14L0.187001 146.142L0.363834 144.151L0.60642 142.17L0.91992 140.201L1.30885 138.249L1.77678 136.317L2.32713 134.409L2.96368 132.529L3.6904 130.68L4.51118 128.868L5.42964 127.097L6.44898 125.373L7.57179 123.699L8.8 122.081L10.1348 120.524L11.5764 119.031L13.1243 117.608L14.777 116.257L16.5322 114.982L18.3867 113.786L20.3364 112.671L22.3767 111.64L24.5021 110.694L26.7063 109.832L28.9828 109.056L31.3241 108.365L33.7225 107.757L36.17 107.231L38.6579 106.784L41.1777 106.413L43.7206 106.114L46.2776 105.883L48.84 105.715L51.3989 105.605L53.9457 105.547L56.4722 105.535L58.9702 105.562L61.432 105.62L63.8504 105.704L66.2186 105.805L68.5303 105.916L70.7797 106.028L72.9617 106.135L75.0716 106.228L77.1057 106.301L79.0605 106.344L80.9334 106.351L82.7225 106.314L84.4264 106.227L86.0443 106.083L87.5763 105.876L89.0228 105.599L90.385 105.247L91.6646 104.815L92.8638 104.299L93.9852 103.694L95.0322 102.996L96.0083 102.204L96.9175 101.313L97.7643 100.322L98.5532 99.2302L99.2892 98.0356L99.9774 96.7382L100.623 95.3379L101.232 93.8352L101.81 92.2312L102.362 90.5273L102.893 88.7254L103.411 86.8276L103.919 84.8368L104.425 82.7558L104.932 80.5879L105.447 78.3368L105.975 76.0062L106.52 73.6003L107.088 71.1235L107.682 68.5804L108.309 65.9761L108.971 63.3155L109.673 60.6042L110.419 57.848L111.212 55.053L112.056 52.2255L112.955 49.3726L113.911 46.5017L114.927 43.6207L116.006 40.7385L117.151 37.8653L118.363 35.0125L119.646 32.1926L121.001 29.4187L122.429 26.7048L123.931 24.0641L125.506 21.51L127.154 19.0548L128.872 16.7104L130.66 14.488L132.513 12.3979L134.429 10.4492L136.403 8.65032L138.432 7.00864L140.51 5.53041L142.632 4.2209L144.794 3.08429L146.988 2.12375L149.211 1.34137L151.454 0.738233L153.714 0.314375L155.983 0.0688969L158.256 0L160.527 0.105035L162.79 0.380554L165.041 0.822368L167.273 1.4256L169.483 2.18475L171.665 3.09372L173.815 4.14594L175.93 5.33434L178.005 6.65147L180.038 8.08952L182.025 9.6404L183.965 11.2958L185.854 13.0471L187.693 14.8857L189.479 16.8027L191.212 18.7895L192.892 20.837L194.518 22.9366L196.091 25.0793L197.611 27.2567L199.081 29.4603L200.501 31.6816L201.874 33.9125L203.202 36.1453L204.487 38.3722L205.731 40.586L206.939 42.7798L208.114 44.9467L209.259 47.0808L210.377 49.176L211.473 51.2269L212.551 53.2287L213.614 55.1766L214.668 57.0669L215.715 58.8958L216.762 60.6603L217.811 62.358L218.867 63.9868L219.933 65.5453L221.015 67.0326L222.115 68.4482L223.237 69.7924L224.384 71.0656L225.56 72.2691L226.768 73.4045L228.009 74.4739L229.286 75.4798L230.601 76.4251L231.955 77.3132L233.349 78.1477L234.785 78.9326L236.262 79.6719L237.781 80.3701L239.341 81.0315L240.942 81.6608L242.584 82.2623L244.265 82.8406L245.984 83.3999L247.741 83.9444L249.533 84.4778L251.361 85.0038L253.224 85.5258L255.118 86.0476L257.042 86.5739L258.992 87.1096L260.964 87.6598L262.953 88.2298L264.955 88.8246L266.964 89.4493L268.973 90.1087L270.978 90.8074L272.972 91.5496L274.949 92.3391L276.903 93.1794L278.827 94.0734L280.715 95.0238L282.563 96.0325L284.363 97.1012L286.111 98.2311L287.8 99.4228L289.427 100.677L290.985 101.992L292.472 103.37L293.882 104.808L295.211 106.306L296.456 107.862L297.614 109.473L298.681 111.14L299.655 112.857L300.534 114.624L301.316 116.437L301.999 118.294L302.583 120.19L303.067 122.123L303.45 124.09L303.733 126.086L303.916 128.108L304 130.152L303.987 132.214L303.879 134.29L303.678 136.378L303.387 138.471L303.01 140.568L302.55 142.664L302.012 144.756L301.4 146.839L300.72 148.911L299.978 150.969L299.178 153.009L298.329 155.03L297.437 157.027L296.51 158.999L295.554 160.945L294.577 162.862L293.588 164.75L292.596 166.607L291.607 168.433L290.631 170.228L289.676 171.992L288.75 173.726L287.862 175.431L287.019 177.108L286.229 178.76L285.499 180.387L284.835 181.994L284.245 183.583L283.733 185.157Z" fill="url(#paint0_linear_15_98)" fill-opacity="0.5"/>
<defs>
<linearGradient id="paint0_linear_15_98" x1="354" y1="67" x2="18.5" y2="272" gradientUnits="userSpaceOnUse">
    <stop offset="0.0749745" stop-color="#d6e9f0" stop-opacity="0.4" />
    <stop offset="0.784357" stop-color="#AADCEC" stop-opacity="0.4" />
</linearGradient>
</defs>
</svg>
