<!-- icon666.com - MILLIONS vector ICONS FREE -->
<svg version="1.1" id="Layer_1" xmlns="http://www.w3.org/2000/svg" xmlns:xlink="http://www.w3.org/1999/xlink" x="0px" y="0px" viewBox="0 0 512 512" style="enable-background:new 0 0 512 512;" xml:space="preserve">
	<g>
		<g>
			<path d="M470.201,118.214c-6.545-6.611-17.21-6.667-23.821-0.12l-31.687,31.364c7.606,8.342,14.603,17.246,20.929,26.64 c0.161-0.147,0.328-0.28,0.484-0.433l33.974-33.629C476.692,135.492,476.746,124.826,470.201,118.214z">
			</path>
		</g>
	</g>
	<g>
		<g>
			<path d="M268.847,0h-48.485c-9.303,0-16.844,7.542-16.844,16.844s7.542,16.844,16.844,16.844h7.398v41.114 c5.564-0.404,11.179-0.619,16.844-0.619s11.281,0.214,16.844,0.619V33.689h7.398c9.303,0,16.844-7.542,16.844-16.844 S278.15,0,268.847,0z">
			</path>
		</g>
	</g>
	<g>
		<g>
			<path d="M244.605,96.643c-114.515,0-207.68,93.165-207.68,207.679S130.09,512,244.605,512s207.68-93.164,207.68-207.679 S359.12,96.643,244.605,96.643z M244.605,472.994c-93.007,0-168.673-75.666-168.673-168.673s75.666-168.673,168.673-168.673 s168.673,75.666,168.673,168.673S337.612,472.994,244.605,472.994z">
			</path>
		</g>
	</g>
	<g>
		<g>
			<path d="M244.605,158.108c-80.623,0-146.214,65.591-146.214,146.214s65.591,146.214,146.214,146.214 s146.214-65.591,146.214-146.214S325.228,158.108,244.605,158.108z M309.688,342.555h-65.083c-6.202,0-11.23-5.029-11.23-11.23 V206.089c0-6.201,5.028-11.23,11.23-11.23s11.23,5.029,11.23,11.23v114.006h53.854c6.202,0,11.23,5.029,11.23,11.23 S315.89,342.555,309.688,342.555z">
			</path>
		</g>
	</g>
</svg>
