<svg viewBox="0 -8 512 511" xmlns="http://www.w3.org/2000/svg">
	<path fill="currentColor" d="m409.601562 342.089844c0 4.710937-3.820312 8.53125-8.535156 8.53125-4.710937 0-8.53125-3.820313-8.53125-8.53125 0-4.714844 3.820313-8.535156 8.53125-8.535156 4.714844 0 8.535156 3.820312 8.535156 8.535156zm0 0">
	</path>
	<path fill="currentColor" d="m384 367.6875c0 4.714844-3.820312 8.535156-8.535156 8.535156-4.710938 0-8.53125-3.820312-8.53125-8.535156 0-4.710938 3.820312-8.53125 8.53125-8.53125 4.714844 0 8.535156 3.820312 8.535156 8.53125zm0 0">
	</path>
	<path fill="currentColor" d="m358.398438 393.289062c0 4.714844-3.820313 8.535157-8.53125 8.535157-4.714844 0-8.535157-3.820313-8.535157-8.535157 0-4.710937 3.820313-8.53125 8.535157-8.53125 4.710937 0 8.53125 3.820313 8.53125 8.53125zm0 0">
	</path>
	<path fill="currentColor" d="m332.800781 418.890625c0 4.710937-3.820312 8.53125-8.535156 8.53125-4.710937 0-8.53125-3.820313-8.53125-8.53125 0-4.714844 3.820313-8.535156 8.53125-8.535156 4.714844 0 8.535156 3.820312 8.535156 8.535156zm0 0">
	</path>
	<path fill="currentColor" d="m443.734375 444.488281c0 4.714844-3.820313 8.535157-8.535156 8.535157-4.710938 0-8.53125-3.820313-8.53125-8.535157 0-4.710937 3.820312-8.53125 8.53125-8.53125 4.714843 0 8.535156 3.820313 8.535156 8.53125zm0 0">
	</path>
	<path fill="currentColor" d="m409.601562 444.488281c0 4.714844-3.820312 8.535157-8.535156 8.535157-4.710937 0-8.53125-3.820313-8.53125-8.535157 0-4.710937 3.820313-8.53125 8.53125-8.53125 4.714844 0 8.535156 3.820313 8.535156 8.53125zm0 0">
	</path>
	<path fill="currentColor" d="m375.464844 444.488281c0 4.714844-3.820313 8.535157-8.53125 8.535157-4.714844 0-8.535156-3.820313-8.535156-8.535157 0-4.710937 3.820312-8.53125 8.535156-8.53125 4.710937 0 8.53125 3.820313 8.53125 8.53125zm0 0">
	</path>
	<path fill="currentColor" d="m341.332031 444.488281c0 4.714844-3.820312 8.535157-8.53125 8.535157-4.714843 0-8.535156-3.820313-8.535156-8.535157 0-4.710937 3.820313-8.53125 8.535156-8.53125 4.710938 0 8.53125 3.820313 8.53125 8.53125zm0 0">
	</path>
	<path fill="currentColor" d="m307.199219 444.488281c0 4.714844-3.820313 8.535157-8.53125 8.535157-4.714844 0-8.535157-3.820313-8.535157-8.535157 0-4.710937 3.820313-8.53125 8.535157-8.53125 4.710937 0 8.53125 3.820313 8.53125 8.53125zm0 0">
	</path>
	<path fill="currentColor" d="m119.464844 342.089844c0 4.710937-3.820313 8.53125-8.53125 8.53125-4.714844 0-8.535156-3.820313-8.535156-8.53125 0-4.714844 3.820312-8.535156 8.535156-8.535156 4.710937 0 8.53125 3.820312 8.53125 8.535156zm0 0">
	</path>
	<path fill="currentColor" d="m145.066406 367.6875c0 4.714844-3.820312 8.535156-8.53125 8.535156-4.714844 0-8.535156-3.820312-8.535156-8.535156 0-4.710938 3.820312-8.53125 8.535156-8.53125 4.710938 0 8.53125 3.820312 8.53125 8.53125zm0 0">
	</path>
	<path fill="currentColor" d="m170.667969 393.289062c0 4.714844-3.820313 8.535157-8.535157 8.535157-4.710937 0-8.53125-3.820313-8.53125-8.535157 0-4.710937 3.820313-8.53125 8.53125-8.53125 4.714844 0 8.535157 3.820313 8.535157 8.53125zm0 0">
	</path>
	<path fill="currentColor" d="m196.265625 418.890625c0 4.710937-3.820313 8.53125-8.53125 8.53125-4.714844 0-8.535156-3.820313-8.535156-8.53125 0-4.714844 3.820312-8.535156 8.535156-8.535156 4.710937 0 8.53125 3.820312 8.53125 8.535156zm0 0">
	</path>
	<path fill="currentColor" d="m85.332031 444.488281c0 4.714844-3.820312 8.535157-8.53125 8.535157-4.714843 0-8.535156-3.820313-8.535156-8.535157 0-4.710937 3.820313-8.53125 8.535156-8.53125 4.710938 0 8.53125 3.820313 8.53125 8.53125zm0 0">
	</path>
	<path fill="currentColor" d="m119.464844 444.488281c0 4.714844-3.820313 8.535157-8.53125 8.535157-4.714844 0-8.535156-3.820313-8.535156-8.535157 0-4.710937 3.820312-8.53125 8.535156-8.53125 4.710937 0 8.53125 3.820313 8.53125 8.53125zm0 0">
	</path>
	<path fill="currentColor" d="m153.601562 444.488281c0 4.714844-3.820312 8.535157-8.535156 8.535157-4.710937 0-8.53125-3.820313-8.53125-8.535157 0-4.710937 3.820313-8.53125 8.53125-8.53125 4.714844 0 8.535156 3.820313 8.535156 8.53125zm0 0">
	</path>
	<path fill="currentColor" d="m187.734375 444.488281c0 4.714844-3.820313 8.535157-8.535156 8.535157-4.710938 0-8.53125-3.820313-8.53125-8.535157 0-4.710937 3.820312-8.53125 8.53125-8.53125 4.714843 0 8.535156 3.820313 8.535156 8.53125zm0 0">
	</path>
	<path fill="currentColor" d="m221.867188 444.488281c0 4.714844-3.820313 8.535157-8.535157 8.535157-4.710937 0-8.53125-3.820313-8.53125-8.535157 0-4.710937 3.820313-8.53125 8.53125-8.53125 4.714844 0 8.535157 3.820313 8.535157 8.53125zm0 0">
	</path>
	<path fill="currentColor" d="m503.464844 478.621094h-238.929688v-96.363282l51.199219-68.585937v-39.847656h-119.46875v34.132812h85.335937c4.710938 0 8.53125 3.820313 8.53125 8.53125 0 4.714844-3.820312 8.535157-8.53125 8.535157h-76.800781l42.664063 56.816406v96.78125h-238.929688c-4.714844 0-8.535156 3.820312-8.535156 8.535156 0 4.710938 3.820312 8.53125 8.535156 8.53125h494.929688c4.714844 0 8.535156-3.820312 8.535156-8.53125 0-4.714844-3.820312-8.535156-8.535156-8.535156zm0 0">
	</path>
	<path fill="currentColor" d="m27.988281.757812 81.496094 80.382813c3.164063 3.171875 7.464844 4.953125 11.945313 4.949219h269.140624c4.480469.003906 8.78125-1.777344 11.945313-4.949219l81.75-80.640625zm106.070313 74.324219c-3.363282 3.300781-8.753906 3.300781-12.117188 0l-51.199218-51.199219c-3.324219-3.351562-3.3125-8.757812.023437-12.09375 3.335937-3.335937 8.742187-3.347656 12.09375-.023437l51.199219 51.199219c3.328125 3.351562 3.328125 8.761718 0 12.117187zm0 0">
	</path>
	<path fill="currentColor" d="m170.667969 145.824219h25.597656c4.714844 0 8.535156 3.820312 8.535156 8.53125v8.535156c0 4.710937-3.820312 8.53125-8.535156 8.53125h-25.597656c-4.714844 0-8.535157-3.820313-8.535157-8.53125v-8.535156c0-4.710938 3.820313-8.53125 8.535157-8.53125zm0 0">
	</path>
	<path fill="currentColor" d="m230.398438 145.824219h51.203124c4.710938 0 8.53125 3.820312 8.53125 8.53125v8.535156c0 4.710937-3.820312 8.53125-8.53125 8.53125h-51.203124c-4.710938 0-8.53125-3.820313-8.53125-8.53125v-8.535156c0-4.710938 3.820312-8.53125 8.53125-8.53125zm0 0">
	</path>
	<path fill="currentColor" d="m145.066406 205.554688c.015625 4.707031 3.828125 8.519531 8.535156 8.535156h204.796876c4.707031-.015625 8.519531-3.828125 8.535156-8.535156v-17.066407h-221.867188zm0 0">
	</path>
	<path fill="currentColor" d="m358.398438 103.15625h-204.796876c-4.707031.011719-8.519531 3.824219-8.535156 8.53125v17.070312h221.867188v-17.070312c-.015625-4.707031-3.828125-8.519531-8.535156-8.53125zm0 0">
	</path>
	<path fill="currentColor" d="m119.464844 154.355469v8.535156c.015625 4.707031 3.828125 8.519531 8.535156 8.53125h17.066406v-25.597656h-17.066406c-4.707031.011719-8.519531 3.824219-8.535156 8.53125zm0 0">
	</path>
	<path fill="currentColor" d="m366.933594 171.421875h17.066406c4.707031-.011719 8.519531-3.824219 8.535156-8.53125v-8.535156c-.015625-4.707031-3.828125-8.519531-8.535156-8.53125h-17.066406zm0 0">
	</path>
	<path fill="currentColor" d="m315.734375 145.824219h25.597656c4.714844 0 8.535157 3.820312 8.535157 8.53125v8.535156c0 4.710937-3.820313 8.53125-8.535157 8.53125h-25.597656c-4.714844 0-8.535156-3.820313-8.535156-8.53125v-8.535156c0-4.710938 3.820312-8.53125 8.535156-8.53125zm0 0">
	</path>
	<path fill="currentColor" d="m128 231.15625h256c4.710938 0 8.535156 3.820312 8.535156 8.53125v8.535156c0 4.710938-3.824218 8.535156-8.535156 8.535156h-256c-4.710938 0-8.535156-3.824218-8.535156-8.535156v-8.535156c0-4.710938 3.824218-8.53125 8.535156-8.53125zm0 0">
	</path>
</svg>
